<mxfile host="app.diagrams.net" modified="2023-04-10T01:11:53.882Z" agent="Mozilla/5.0 (Windows NT 10.0; Win64; x64) AppleWebKit/537.36 (KHTML, like Gecko) Chrome/85.0.4183.102 Safari/537.36" version="21.1.5" etag="qfzexMnBZDu49HZz4t5R" type="github">
  <diagram name="第 1 页" id="l_PWRb4K3ikP0spt2952">
    <mxGraphModel>
      <root>
        <mxCell id="0" />
        <mxCell id="1" parent="0" />
      </root>
    </mxGraphModel>
  </diagram>
</mxfile>
